# Blender 3.1.1
# www.blender.org
mtllib spoon.mtl
o 円
v 0.000000 0.000000 -0.600000
v -0.078036 0.000000 -0.588471
v -0.153073 0.000000 -0.554328
v -0.222228 0.000000 -0.498882
v -0.282843 0.000000 -0.424264
v -0.332588 0.000000 -0.333342
v -0.369552 0.000000 -0.229610
v -0.392314 0.000000 -0.117054
v -0.400000 0.000000 0.000000
v -0.392314 0.000000 0.117054
v -0.369552 0.000000 0.229610
v -0.332588 0.000000 0.333342
v -0.282843 0.000000 0.424264
v -0.222228 0.000000 0.498882
v -0.153073 0.000000 0.554328
v -0.078036 0.000000 0.588471
v 0.000000 0.000000 0.600000
v 0.078036 0.000000 0.588471
v 0.153073 0.000000 0.554328
v 0.222228 0.000000 0.498882
v 0.282843 0.000000 0.424264
v 0.332588 0.000000 0.333342
v 0.369552 0.000000 0.229610
v 0.392314 0.000000 0.117054
v 0.400000 0.000000 -0.000000
v 0.392314 0.000000 -0.117054
v 0.369552 0.000000 -0.229610
v 0.332588 0.000000 -0.333342
v 0.282843 0.000000 -0.424264
v 0.222228 0.000000 -0.498882
v 0.153073 0.000000 -0.554328
v 0.078036 0.000000 -0.588471
v 0.000000 -0.080270 -0.600000
v -0.078036 -0.080270 -0.588471
v -0.153073 -0.080270 -0.554328
v -0.222228 -0.080270 -0.498882
v -0.282843 -0.080270 -0.424264
v -0.332588 -0.080270 -0.333342
v -0.369552 -0.080270 -0.229610
v -0.392314 -0.080270 -0.117054
v -0.400000 -0.080270 0.000000
v -0.392314 -0.080270 0.117054
v -0.369552 -0.080270 0.229610
v -0.332588 -0.080270 0.333342
v -0.282843 -0.080270 0.424264
v -0.222228 -0.080270 0.498882
v -0.153073 -0.080270 0.554328
v -0.078036 -0.080270 0.588471
v 0.000000 -0.080270 0.600000
v 0.078036 -0.080270 0.588471
v 0.153073 -0.080270 0.554328
v 0.222228 -0.080270 0.498882
v 0.282843 -0.080270 0.424264
v 0.332588 -0.080270 0.333342
v 0.369552 -0.080270 0.229610
v 0.392314 -0.080270 0.117054
v 0.400000 -0.080270 -0.000000
v 0.392314 -0.080270 -0.117054
v 0.369552 -0.080270 -0.229610
v 0.332588 -0.080270 -0.333342
v 0.282843 -0.080270 -0.424264
v 0.222228 -0.080270 -0.498882
v 0.153073 -0.080270 -0.554328
v 0.078036 -0.080270 -0.588471
v -0.071189 -0.003522 0.601616
v -0.139642 -0.003522 0.570468
v 0.000000 -0.003522 0.612133
v 0.071189 -0.003522 0.601616
v 0.139642 -0.003522 0.570468
v -0.071189 -0.076748 0.601616
v -0.139642 -0.076748 0.570468
v 0.000000 -0.076748 0.612133
v 0.071189 -0.076748 0.601616
v 0.139642 -0.076748 0.570468
v -0.071189 -0.003522 0.601616
v -0.139642 -0.003522 0.570468
v 0.000000 -0.003522 0.612133
v 0.071189 -0.003522 0.601616
v 0.139642 -0.003522 0.570468
v -0.071189 -0.076748 0.601616
v -0.139642 -0.076748 0.570468
v 0.000000 -0.076748 0.612133
v 0.071189 -0.076748 0.601616
v 0.139642 -0.076748 0.570468
v -0.039880 -0.019624 3.216556
v -0.078228 -0.019624 3.199107
v 0.000000 -0.019624 3.222448
v 0.039880 -0.019624 3.216556
v 0.078228 -0.019624 3.199107
v -0.039880 -0.060646 3.216556
v -0.078228 -0.060646 3.199107
v 0.000000 -0.060646 3.222448
v 0.039880 -0.060646 3.216556
v 0.078228 -0.060646 3.199107
vn 0.2503 -0.4834 0.8388
vn -0.0000 -0.4921 0.8706
vn -0.2503 -0.4834 0.8388
vn -0.4683 -0.4611 0.7537
vn -0.6382 -0.4328 0.6367
vn -0.7606 -0.4053 0.5071
vn -0.8440 -0.3825 0.3760
vn -0.8971 -0.3659 0.2477
vn -0.9264 -0.3559 0.1228
vn -0.9358 -0.3526 -0.0000
vn -0.9264 -0.3559 -0.1228
vn -0.8971 -0.3659 -0.2477
vn -0.8440 -0.3825 -0.3760
vn -0.7606 -0.4053 -0.5071
vn -0.6382 -0.4328 -0.6367
vn -0.6106 -0.4789 -0.6307
vn -0.0676 -0.9825 -0.1736
vn -0.0000 -0.9885 -0.1513
vn 0.0676 -0.9825 -0.1736
vn 0.6106 -0.4789 -0.6307
vn 0.6382 -0.4328 -0.6367
vn 0.7606 -0.4053 -0.5071
vn 0.8440 -0.3825 -0.3760
vn 0.8971 -0.3659 -0.2477
vn 0.9264 -0.3559 -0.1228
vn 0.9358 -0.3526 -0.0000
vn 0.9264 -0.3559 0.1228
vn 0.8971 -0.3659 0.2477
vn 0.8440 -0.3825 0.3760
vn 0.7606 -0.4053 0.5071
vn 0.6382 -0.4328 0.6367
vn 0.4683 -0.4611 0.7537
vn 0.2503 0.4834 0.8388
vn 0.4683 0.4611 0.7537
vn 0.6382 0.4328 0.6367
vn 0.7606 0.4053 0.5071
vn 0.8440 0.3825 0.3760
vn 0.8971 0.3659 0.2477
vn 0.9264 0.3559 0.1228
vn 0.9358 0.3526 -0.0000
vn 0.9264 0.3559 -0.1228
vn 0.8971 0.3659 -0.2477
vn 0.8440 0.3825 -0.3760
vn 0.7606 0.4053 -0.5071
vn 0.6382 0.4328 -0.6367
vn 0.6106 0.4789 -0.6307
vn 0.0676 0.9825 -0.1736
vn -0.0000 0.9885 -0.1513
vn -0.0676 0.9825 -0.1736
vn -0.6106 0.4789 -0.6307
vn -0.6382 0.4328 -0.6367
vn -0.7606 0.4053 -0.5071
vn -0.8440 0.3825 -0.3760
vn -0.8971 0.3659 -0.2477
vn -0.9264 0.3559 -0.1228
vn -0.9358 0.3526 -0.0000
vn -0.9264 0.3559 0.1228
vn -0.8971 0.3659 0.2477
vn -0.8440 0.3825 0.3760
vn -0.7606 0.4053 0.5071
vn -0.6382 0.4328 0.6367
vn -0.4683 0.4611 0.7537
vn -0.2503 0.4834 0.8388
vn -0.0000 0.4921 0.8706
vn -0.6939 0.1045 -0.7125
vn -0.2098 0.2597 -0.9426
vn 0.0320 0.9891 -0.1439
vn -0.0000 0.9904 -0.1381
vn -0.0000 0.2713 -0.9625
vn 0.4153 0.8036 -0.4264
vn -0.4153 0.8036 -0.4264
vn -0.6665 0.7454 -0.0169
vn -0.8996 0.4362 -0.0228
vn 0.0010 1.0000 -0.0032
vn -0.0000 1.0000 -0.0032
vn 0.6939 0.1045 -0.7125
vn 0.8996 0.4362 -0.0228
vn 0.6665 0.7454 -0.0169
vn 0.2098 0.2597 -0.9426
vn -0.0000 -0.9945 -0.1043
vn 0.0336 -0.9940 -0.1045
vn -0.0320 0.9891 -0.1439
vn -0.0336 -0.9940 -0.1045
vn -0.8440 -0.3158 -0.4335
vn -0.2504 -0.4821 -0.8396
vn -0.0010 1.0000 -0.0032
vn -0.0000 0.4908 -0.8713
vn -0.2504 0.4821 -0.8396
vn -0.0000 -0.4908 -0.8713
vn -0.8440 0.3158 -0.4335
vn 0.8440 -0.3158 -0.4335
vn 0.2504 -0.4821 -0.8396
vn 0.2504 0.4821 -0.8396
vn 0.8440 0.3158 -0.4335
vt 0.000000 0.000000
vt 0.000000 0.000000
vt 0.000000 0.000000
vt 0.000000 0.000000
vt 0.000000 0.000000
vt 0.000000 0.000000
vt 0.000000 0.000000
vt 0.000000 0.000000
vt 0.000000 0.000000
vt 0.000000 0.000000
vt 0.000000 0.000000
vt 0.000000 0.000000
vt 0.000000 0.000000
vt 0.000000 0.000000
vt 0.000000 0.000000
vt 0.000000 0.000000
vt 0.000000 0.000000
vt 0.000000 0.000000
vt 0.000000 0.000000
vt 0.000000 0.000000
vt 0.000000 0.000000
vt 0.000000 0.000000
vt 0.000000 0.000000
vt 0.000000 0.000000
vt 0.000000 0.000000
vt 0.000000 0.000000
vt 0.000000 0.000000
vt 0.000000 0.000000
vt 0.000000 0.000000
vt 0.000000 0.000000
vt 0.000000 0.000000
vt 0.000000 0.000000
vt 0.000000 0.000000
vt 0.000000 0.000000
vt 0.000000 0.000000
vt 0.000000 0.000000
vt 0.000000 0.000000
vt 0.000000 0.000000
vt 0.000000 0.000000
vt 0.000000 0.000000
vt 0.000000 0.000000
vt 0.000000 0.000000
vt 0.000000 0.000000
vt 0.000000 0.000000
vt 0.000000 0.000000
vt 0.000000 0.000000
vt 0.000000 0.000000
vt 0.000000 0.000000
vt 0.000000 0.000000
vt 0.000000 0.000000
vt 0.000000 0.000000
vt 0.000000 0.000000
vt 0.000000 0.000000
vt 0.000000 0.000000
vt 0.000000 0.000000
vt 0.000000 0.000000
vt 0.000000 0.000000
vt 0.000000 0.000000
vt 0.000000 0.000000
vt 0.000000 0.000000
vt 0.000000 0.000000
vt 0.000000 0.000000
vt 0.000000 0.000000
vt 0.000000 0.000000
vt 0.000000 0.000000
vt 0.000000 0.000000
vt 0.000000 0.000000
vt 0.000000 0.000000
vt 0.000000 0.000000
vt 0.000000 0.000000
vt 0.000000 0.000000
vt 0.000000 0.000000
vt 0.000000 0.000000
vt 0.000000 0.000000
vt 0.000000 0.000000
vt 0.000000 0.000000
vt 0.000000 0.000000
vt 0.000000 0.000000
vt 0.000000 0.000000
vt 0.000000 0.000000
vt 0.000000 0.000000
vt 0.000000 0.000000
vt 0.000000 0.000000
vt 0.000000 0.000000
vt 0.000000 0.000000
vt 0.000000 0.000000
vt 0.000000 0.000000
vt 0.000000 0.000000
vt 0.000000 0.000000
vt 0.000000 0.000000
vt 0.000000 0.000000
vt 0.000000 0.000000
vt 0.000000 0.000000
vt 0.000000 0.000000
s 1
f 2/2/1 1/1/2 32/32/3 31/31/4 30/30/5 29/29/6 28/28/7 27/27/8 26/26/9 25/25/10 24/24/11 23/23/12 22/22/13 21/21/14 20/20/15 19/19/16 18/18/17 17/17/18 16/16/19 15/15/20 14/14/21 13/13/22 12/12/23 11/11/24 10/10/25 9/9/26 8/8/27 7/7/28 6/6/29 5/5/30 4/4/31 3/3/32
f 34/34/33 35/35/34 36/36/35 37/37/36 38/38/37 39/39/38 40/40/39 41/41/40 42/42/41 43/43/42 44/44/43 45/45/44 46/46/45 47/47/46 48/48/47 49/49/48 50/50/49 51/51/50 52/52/51 53/53/52 54/54/53 55/55/54 56/56/55 57/57/56 58/58/57 59/59/58 60/60/59 61/61/60 62/62/61 63/63/62 64/64/63 33/33/64
f 24/24/11 25/25/10 57/57/56 56/56/55
f 11/11/24 12/12/23 44/44/43 43/43/42
f 25/25/10 26/26/9 58/58/57 57/57/56
f 12/12/23 13/13/22 45/45/44 44/44/43
f 26/26/9 27/27/8 59/59/58 58/58/57
f 13/13/22 14/14/21 46/46/45 45/45/44
f 27/27/8 28/28/7 60/60/59 59/59/58
f 14/14/21 15/15/20 47/47/46 46/46/45
f 1/1/2 2/2/1 34/34/33 33/33/64
f 28/28/7 29/29/6 61/61/60 60/60/59
f 18/18/17 19/19/16 69/69/65 68/68/66
f 2/2/1 3/3/32 35/35/34 34/34/33
f 29/29/6 30/30/5 62/62/61 61/61/60
f 49/49/48 48/48/47 70/70/67 72/72/68
f 3/3/32 4/4/31 36/36/35 35/35/34
f 30/30/5 31/31/4 63/63/62 62/62/61
f 17/17/18 18/18/17 68/68/66 67/67/69
f 4/4/31 5/5/30 37/37/36 36/36/35
f 31/31/4 32/32/3 64/64/63 63/63/62
f 48/48/47 47/47/46 71/71/70 70/70/67
f 5/5/30 6/6/29 38/38/37 37/37/36
f 32/32/3 1/1/2 33/33/64 64/64/63
f 19/19/16 20/20/15 52/52/51 51/51/50
f 6/6/29 7/7/28 39/39/38 38/38/37
f 20/20/15 21/21/14 53/53/52 52/52/51
f 7/7/28 8/8/27 40/40/39 39/39/38
f 21/21/14 22/22/13 54/54/53 53/53/52
f 8/8/27 9/9/26 41/41/40 40/40/39
f 22/22/13 23/23/12 55/55/54 54/54/53
f 9/9/26 10/10/25 42/42/41 41/41/40
f 23/23/12 24/24/11 56/56/55 55/55/54
f 10/10/25 11/11/24 43/43/42 42/42/41
f 69/69/65 74/74/71 84/84/72 79/79/73
f 72/72/68 70/70/67 80/80/74 82/82/75
f 71/71/70 66/66/76 76/76/77 81/81/78
f 65/65/79 67/67/69 77/77/80 75/75/81
f 50/50/49 49/49/48 72/72/68 73/73/82
f 15/15/20 16/16/19 65/65/79 66/66/76
f 19/19/16 51/51/50 74/74/71 69/69/65
f 51/51/50 50/50/49 73/73/82 74/74/71
f 16/16/19 17/17/18 67/67/69 65/65/79
f 47/47/46 15/15/20 66/66/76 71/71/70
f 78/78/83 79/79/73 89/89/84 88/88/85
f 83/83/86 82/82/75 92/92/87 93/93/88
f 77/77/80 78/78/83 88/88/85 87/87/89
f 79/79/73 84/84/72 94/94/90 89/89/84
f 67/67/69 68/68/66 78/78/83 77/77/80
f 73/73/82 72/72/68 82/82/75 83/83/86
f 68/68/66 69/69/65 79/79/73 78/78/83
f 66/66/76 65/65/79 75/75/81 76/76/77
f 74/74/71 73/73/82 83/83/86 84/84/72
f 70/70/67 71/71/70 81/81/78 80/80/74
f 86/86/91 85/85/92 90/90/93 91/91/94
f 85/85/92 87/87/89 92/92/87 90/90/93
f 87/87/89 88/88/85 93/93/88 92/92/87
f 88/88/85 89/89/84 94/94/90 93/93/88
f 76/76/77 75/75/81 85/85/92 86/86/91
f 84/84/72 83/83/86 93/93/88 94/94/90
f 80/80/74 81/81/78 91/91/94 90/90/93
f 75/75/81 77/77/80 87/87/89 85/85/92
f 81/81/78 76/76/77 86/86/91 91/91/94
f 82/82/75 80/80/74 90/90/93 92/92/87
