# Blender 3.1.1
# www.blender.org
mtllib box.mtl
o Cube
v 0.100000 0.100000 -0.030000
v 0.100000 -0.100000 -0.030000
v 0.100000 0.100000 0.030000
v 0.100000 -0.100000 0.030000
v -0.100000 0.100000 -0.030000
v -0.100000 -0.100000 -0.030000
v -0.100000 0.100000 0.030000
v -0.100000 -0.100000 0.030000
v 0.085858 0.100000 -0.015858
v 0.088453 -0.088453 -0.018453
v 0.085858 0.100000 0.015858
v 0.088453 -0.088453 0.018453
v -0.085858 0.100000 -0.015858
v -0.088453 -0.088453 -0.018453
v -0.085858 0.100000 0.015858
v -0.088453 -0.088453 0.018453
vn -0.0000 -0.0000 1.0000
vn -1.0000 -0.0000 -0.0000
vn -0.0000 -1.0000 -0.0000
vn 1.0000 -0.0000 -0.0000
vn -0.0000 -0.0000 -1.0000
vn -0.0000 -0.0138 -0.9999
vn 0.9999 -0.0138 -0.0000
vn -0.0000 1.0000 -0.0000
vn -0.9999 -0.0138 -0.0000
vn -0.0000 -0.0138 0.9999
vt 0.625000 0.500000
vt 0.375000 0.500000
vt 0.625000 0.750000
vt 0.375000 0.750000
vt 0.625000 0.250000
vt 0.125000 0.500000
vt 0.375000 0.250000
vt 0.625000 1.000000
vt 0.625000 0.000000
vt 0.375000 1.000000
vt 0.375000 0.000000
vt 0.125000 0.750000
vt 0.625000 0.500000
vt 0.375000 0.500000
vt 0.625000 0.750000
vt 0.375000 0.750000
vt 0.625000 0.250000
vt 0.125000 0.500000
vt 0.375000 0.250000
vt 0.625000 1.000000
vt 0.625000 0.000000
vt 0.375000 1.000000
vt 0.375000 0.000000
vt 0.125000 0.750000
s 0
usemtl Material
f 4/4/1 3/3/1 7/8/1 8/10/1
f 8/11/2 7/9/2 5/5/2 6/7/2
f 6/6/3 2/2/3 4/4/3 8/12/3
f 2/2/4 1/1/4 3/3/4 4/4/4
f 6/7/5 5/5/5 1/1/5 2/2/5
f 12/16/6 16/22/6 15/20/6 11/15/6
f 16/23/7 14/19/7 13/17/7 15/21/7
f 14/18/8 16/24/8 12/16/8 10/14/8
f 10/14/9 12/16/9 11/15/9 9/13/9
f 14/19/10 10/14/10 9/13/10 13/17/10
f 7/8/8 3/3/8 11/15/8 15/20/8
f 3/3/8 1/1/8 9/13/8 11/15/8
f 5/5/8 7/9/8 15/21/8 13/17/8
f 1/1/8 5/5/8 13/17/8 9/13/8
